<svg xmlns="http://www.w3.org/2000/svg" style="display: none;">
  <!-- 通用图标 -->
  <symbol id="check" viewBox="0 0 24 24">
    <path fill="currentColor" d="M20 6L9 17L4 12" stroke="currentColor" stroke-width="2" stroke-linecap="round" stroke-linejoin="round"/>
  </symbol>
  <symbol id="x" viewBox="0 0 24 24">
    <path fill="currentColor" d="M18 6L6 18M6 6l12 12" stroke="currentColor" stroke-width="2" stroke-linecap="round" stroke-linejoin="round"/>
  </symbol>
  <symbol id="info" viewBox="0 0 24 24">
    <circle cx="12" cy="12" r="10" stroke="currentColor" stroke-width="2"/>
    <line x1="12" y1="16" x2="12" y2="12" stroke="currentColor" stroke-width="2"/>
    <line x1="12" y1="8" x2="12.01" y2="8" stroke="currentColor" stroke-width="2"/>
  </symbol>
  <symbol id="alert" viewBox="0 0 24 24">
    <path fill="currentColor" d="M10.29 3.86L1.82 18a2 2 0 0 0 1.71 3h16.94a2 2 0 0 0 1.71-3L13.71 3.86a2 2 0 0 0-3.42 0z" stroke="currentColor" stroke-width="2"/>
    <line x1="12" y1="9" x2="12" y2="13" stroke="currentColor" stroke-width="2"/>
    <line x1="12" y1="17" x2="12.01" y2="17" stroke="currentColor" stroke-width="2"/>
  </symbol>
  <symbol id="download" viewBox="0 0 24 24">
    <path fill="currentColor" d="M21 15v4a2 2 0 0 1-2 2H5a2 2 0 0 1-2-2v-4M7 10l5 5 5-5M12 15V3" stroke="currentColor" stroke-width="2" stroke-linecap="round" stroke-linejoin="round"/>
  </symbol>
  <symbol id="upload" viewBox="0 0 24 24">
    <path fill="currentColor" d="M21 15v4a2 2 0 0 1-2 2H5a2 2 0 0 1-2-2v-4M12 11V3M5 8l7 7 7-7" stroke="currentColor" stroke-width="2" stroke-linecap="round" stroke-linejoin="round"/>
  </symbol>
  
  <!-- 导航图标 -->
  <symbol id="menu" viewBox="0 0 24 24">
    <path fill="currentColor" d="M3 12h18M3 6h18M3 18h18" stroke="currentColor" stroke-width="2" stroke-linecap="round"/>
  </symbol>
  <symbol id="arrow-right" viewBox="0 0 24 24">
    <path fill="currentColor" d="M5 12h14M12 5l7 7-7 7" stroke="currentColor" stroke-width="2" stroke-linecap="round" stroke-linejoin="round"/>
  </symbol>
  <symbol id="arrow-left" viewBox="0 0 24 24">
    <path fill="currentColor" d="M19 12H5M12 5L5 12l7 7" stroke="currentColor" stroke-width="2" stroke-linecap="round" stroke-linejoin="round"/>
  </symbol>
  <symbol id="home" viewBox="0 0 24 24">
    <path fill="currentColor" d="m3 9 9-7 9 7v11a2 2 0 0 1-2 2H5a2 2 0 0 1-2-2z" stroke="currentColor" stroke-width="2" stroke-linecap="round" stroke-linejoin="round"/>
    <polyline points="9 22 9 12 15 12 15 22" stroke="currentColor" stroke-width="2" stroke-linecap="round" stroke-linejoin="round"/>
  </symbol>
  
  <!-- 功能图标 -->
  <symbol id="copy" viewBox="0 0 24 24">
    <rect width="14" height="14" x="8" y="8" rx="2" ry="2" fill="currentColor" stroke="currentColor" stroke-width="2"/>
    <path fill="currentColor" d="M16 4H4a2 2 0 0 0-2 2v14a2 2 0 0 0 2 2h14a2 2 0 0 0 2-2v-8" stroke="currentColor" stroke-width="2" stroke-linecap="round"/>
  </symbol>
  <symbol id="edit" viewBox="0 0 24 24">
    <path fill="currentColor" d="M12 20h9M16.5 3.5a2.121 2.121 0 0 1 3 3L7 19l-4 1 1-4L16.5 3.5z" stroke="currentColor" stroke-width="2" stroke-linecap="round" stroke-linejoin="round"/>
  </symbol>
  <symbol id="eye" viewBox="0 0 24 24">
    <path fill="currentColor" d="M2 12s3-7 10-7 10 7 10 7-3 7-10 7-10-7-10-7Z" stroke="currentColor" stroke-width="2"/>
    <circle cx="12" cy="12" r="3" fill="currentColor"/>
  </symbol>
  <symbol id="search" viewBox="0 0 24 24">
    <circle cx="11" cy="11" r="8" stroke="currentColor" stroke-width="2"/>
    <path fill="currentColor" d="m21 21-4.35-4.35" stroke="currentColor" stroke-width="2" stroke-linecap="round"/>
  </symbol>
  <symbol id="star" viewBox="0 0 24 24">
    <path fill="currentColor" d="M12 2l3.09 6.26L22 9.27l-5 4.87 1.18 6.88L12 17.77l-6.18 3.25L7 14.14 2 9.27l6.91-1.01L12 2z"/>
  </symbol>
  
  <!-- 社交媒体图标 -->
  <symbol id="twitter" viewBox="0 0 24 24">
    <path fill="currentColor" d="M23 3a10.9 10.9 0 0 1-3.14 1.53 4.48 4.48 0 0 0-7.86 3v1A10.66 10.66 0 0 1 3 4s-4 9 5 13a11.64 11.64 0 0 1-7 2c9 5 20 0 20-11.5a4.5 4.5 0 0 0-.08-.83A7.72 7.72 0 0 0 23 3z"/>
  </symbol>
  <symbol id="github" viewBox="0 0 24 24">
    <path fill="currentColor" d="M12 0c-6.626 0-12 5.373-12 12 0 5.302 3.438 9.8 8.207 11.387.599.111.793-.261.793-.577v-2.234c-3.338.726-4.033-1.416-4.033-1.416-.546-1.387-1.333-1.756-1.333-1.756-1.089-.745.083-.729.083-.729 1.205.084 1.839 1.237 1.839 1.237 1.07 1.834 2.807 1.304 3.492.997.107-.775.418-1.305.762-1.604-2.665-.305-5.467-1.334-5.467-5.931 0-1.311.469-2.381 1.236-3.221-.124-.303-.535-1.524.117-3.176 0 0 1.008-.322 3.301 1.23.957-.266 1.983-.399 3.003-.404 1.02.005 2.047.138 3.006.404 2.291-1.552 3.297-1.23 3.297-1.23.653 1.653.242 2.874.118 3.176.77.84 1.235 1.911 1.235 3.221 0 4.609-2.807 5.624-5.479 5.921.43.372.823 1.102.823 2.222v3.293c0 .319.192.694.801.576 4.765-1.589 8.199-6.086 8.199-11.386 0-6.627-5.373-12-12-12z"/>
  </symbol>
  <symbol id="linkedin" viewBox="0 0 24 24">
    <path fill="currentColor" d="M4.98 3.5c0 1.381-1.11 2.5-2.48 2.5s-2.48-1.119-2.48-2.5c0-1.38 1.11-2.5 2.48-2.5s2.48 1.12 2.48 2.5zm.02 4.5h-5v16h5v-16zm7.982 0h-4.968v16h4.969v-8.399c0-4.67 6.029-5.052 6.029 0v8.399h4.988v-10.131c0-7.88-8.922-7.593-11.018-3.714v-2.155z"/>
  </symbol>
</svg>